<svg xmlns="http://www.w3.org/2000/svg" viewBox="0 0 64 64">
  <defs>
    <linearGradient id="bg" x1="0" y1="0" x2="0" y2="1">
      <stop offset="0" stop-color="#fffdf8"/>
      <stop offset="1" stop-color="#f2e5d2"/>
    </linearGradient>
    <linearGradient id="breadCrust" x1="0" y1="0" x2="0" y2="1">
      <stop offset="0" stop-color="#cd9147"/>
      <stop offset="1" stop-color="#a76a2d"/>
    </linearGradient>
    <linearGradient id="breadFace" x1="0" y1="0" x2="0" y2="1">
      <stop offset="0" stop-color="#f8dca4"/>
      <stop offset="1" stop-color="#e8b977"/>
    </linearGradient>
    <linearGradient id="lettuce" x1="0" y1="0" x2="0" y2="1">
      <stop offset="0" stop-color="#97d357"/>
      <stop offset="1" stop-color="#75b63a"/>
    </linearGradient>
    <linearGradient id="tomato" x1="0" y1="0" x2="0" y2="1">
      <stop offset="0" stop-color="#ef6849"/>
      <stop offset="1" stop-color="#da432f"/>
    </linearGradient>
    <linearGradient id="cheese" x1="0" y1="0" x2="0" y2="1">
      <stop offset="0" stop-color="#ffd857"/>
      <stop offset="1" stop-color="#f2b42d"/>
    </linearGradient>
    <filter id="soft" x="-40%" y="-40%" width="180%" height="180%">
      <feGaussianBlur stdDeviation="1.8"/>
    </filter>
  </defs>

  <rect width="64" height="64" rx="15" fill="url(#bg)"/>

  <ellipse cx="32" cy="56" rx="17" ry="3.5" fill="#6b4a1f" opacity="0.22" filter="url(#soft)"/>

  <rect x="13" y="48" width="38" height="9" rx="4" fill="url(#breadCrust)"/>
  <rect x="14" y="47.5" width="36" height="4.5" rx="2" fill="url(#breadFace)"/>

  <rect x="14" y="43.5" width="36" height="4" rx="2" fill="url(#lettuce)"/>
  <circle cx="17" cy="42.2" r="2.2" fill="#86c247"/>
  <circle cx="21" cy="42.2" r="2.2" fill="#86c247"/>
  <circle cx="25" cy="42.2" r="2.2" fill="#86c247"/>
  <circle cx="29" cy="42.2" r="2.2" fill="#86c247"/>
  <circle cx="33" cy="42.2" r="2.2" fill="#86c247"/>
  <circle cx="37" cy="42.2" r="2.2" fill="#86c247"/>
  <circle cx="41" cy="42.2" r="2.2" fill="#86c247"/>
  <circle cx="45" cy="42.2" r="2.2" fill="#86c247"/>
  <circle cx="49" cy="42.2" r="2.2" fill="#86c247"/>

  <rect x="13" y="37" width="38" height="6" rx="1" fill="url(#tomato)"/>
  <rect x="13" y="39.7" width="38" height="1.4" fill="#f6a18a" opacity="0.7"/>

  <rect x="12" y="30.5" width="40" height="7" rx="1.5" fill="url(#cheese)"/>
  <rect x="13" y="30.5" width="38" height="2.6" rx="1.5" fill="#ffe086" opacity="0.9"/>
  <rect x="16.5" y="37.3" width="4.5" height="3.8" rx="2.2" fill="url(#cheese)"/>
  <rect x="28.5" y="37.1" width="4.5" height="4" rx="2.2" fill="url(#cheese)"/>
  <rect x="40.5" y="37.3" width="4.5" height="3.8" rx="2.2" fill="url(#cheese)"/>

  <rect x="10" y="16" width="44" height="15" rx="6" fill="url(#breadCrust)"/>
  <rect x="12" y="26.5" width="40" height="4.5" rx="2" fill="url(#breadFace)"/>

  <ellipse cx="24" cy="21" rx="1.4" ry="1.7" fill="#f5e3c6" opacity="0.95"/>
  <ellipse cx="33" cy="20.2" rx="1.4" ry="1.7" fill="#f5e3c6" opacity="0.95"/>
  <ellipse cx="41" cy="21.6" rx="1.4" ry="1.7" fill="#f5e3c6" opacity="0.95"/>
  <ellipse cx="29" cy="24.6" rx="1.4" ry="1.7" fill="#f5e3c6" opacity="0.95"/>
</svg>